<svg id="Layer_1" enable-background="new 0 0 512 512" height="512" viewBox="0 0 512 512" width="512" xmlns="http://www.w3.org/2000/svg"><g><path d="m103.464 86.874c-8.284 0-15 6.716-15 15v395.126c0 5.374 2.875 10.337 7.535 13.011 4.661 2.674 10.396 2.65 15.035-.061l144.966-84.751 19.699-159.791-19.699-178.534z" fill="#ff4949"/><path d="m408.536 86.874h-152.536v338.325l144.966 84.75c2.338 1.367 4.953 2.051 7.57 2.051 2.576 0 5.152-.663 7.465-1.989 4.661-2.674 7.535-7.637 7.535-13.011v-395.126c0-8.284-6.716-15-15-15z" fill="#e50148"/></g><g><path d="m27.51 0c-8.284 0-15 6.716-15 15 0 56.174 45.701 101.874 101.874 101.874h141.616l19.699-54.402-19.699-62.472z" fill="#ffd74a"/><path d="m484.49 0h-228.49v116.874h141.616c56.174 0 101.874-45.7 101.874-101.874 0-8.284-6.716-15-15-15z" fill="#fdbf00"/></g><g><g><path d="m242.473 176.875-17.705 54.488h-57.292c-6.162 0-11.623 3.968-13.527 9.828s.182 12.28 5.167 15.902l46.351 33.676-17.705 54.488c-1.904 5.86.182 12.28 5.167 15.902 4.986 3.622 11.735 3.622 16.721 0l46.35-33.675 12.514-60.429-12.514-100.008c-6.162 0-11.623 3.968-13.527 9.828z" fill="#e50148"/></g><path d="m358.051 241.191c-1.904-5.86-7.365-9.828-13.527-9.828h-57.292l-17.705-54.488c-1.904-5.86-7.365-9.828-13.527-9.828v160.437l46.35 33.676c3.901 2.717 10.947 4.165 16.721 0 4.997-3.605 7.071-10.042 5.167-15.902l-17.705-54.488 46.351-33.676c4.985-3.622 7.071-10.042 5.167-15.903z" fill="#bf065b"/></g></svg>