<svg height="512pt" viewBox="0 0 512.08706 512" width="512pt" xmlns="http://www.w3.org/2000/svg"><path d="m504.085938 256.042969c0 136.96875-111.03125 248-248 248-136.964844 0-248-111.03125-248-248 0-136.964844 111.035156-248 248-248 136.96875 0 248 111.035156 248 248zm0 0" fill="#91e8ed"/><path d="m128.085938 320.042969-48-32v-40l16-24 32-16 16-28v-68l-32-24h-38.398438c-79.535156 86.277343-87.65625 216.511719-19.449219 312h33.847657l44-24 8-28zm0 0" fill="#9ccc65"/><path d="m404.6875 57.484375-40.601562 22.558594h-72l-36 20-20 80-20 16v32l24 48 56 16h205.367187c13.214844-90.023438-23.9375-180.054688-96.796875-234.558594zm0 0" fill="#9ccc65"/><path d="m240.085938 448.042969h-56l-44.71875 26.832031c74.421874 39.6875 163.910156 38.832031 237.558593-2.273438l-72.839843-48.558593zm0 0" fill="#9ccc65"/><path d="m296.085938 128.042969h208v256h-208zm0 0" fill="#00c3ff"/><g fill="#fff"><path d="m320.085938 344.042969h16v16h-16zm0 0"/><path d="m352.085938 344.042969h16v16h-16zm0 0"/><path d="m384.085938 344.042969h16v16h-16zm0 0"/><path d="m320.085938 280.042969h16v16h-16zm0 0"/><path d="m352.085938 280.042969h16v16h-16zm0 0"/><path d="m384.085938 280.042969h16v16h-16zm0 0"/><path d="m320.085938 216.042969h16v16h-16zm0 0"/><path d="m352.085938 216.042969h16v16h-16zm0 0"/><path d="m384.085938 216.042969h16v16h-16zm0 0"/><path d="m320.085938 152.042969h16v16h-16zm0 0"/><path d="m352.085938 152.042969h16v16h-16zm0 0"/><path d="m384.085938 152.042969h16v16h-16zm0 0"/></g><path d="m416.085938 344.042969h64v16h-64zm0 0"/><path d="m416.085938 280.042969h64v16h-64zm0 0"/><path d="m416.085938 216.042969h64v16h-64zm0 0"/><path d="m472.886719 120.042969c-65.382813-104.269531-195.707031-147.257813-310.292969-102.351563-114.589844 44.90625-181.003906 164.996094-158.132812 285.925782 22.867187 120.929687 128.554687 208.46875 251.625 208.425781 88.019531-.304688 169.777343-45.566407 216.753906-120h39.246094v-272zm-19.113281 0h-165.6875v161.390625l-42.398438-12.117188-21.601562-43.160156v-26.273438l19.105468-15.28125 19.816406-79.246093 31.152344-17.3125h72l37.816406-21.007813-.113281-.199218c19.25 15.09375 36.085938 33.035156 49.929688 53.207031zm-437.6875 136c-.039063-59.078125 21.796874-116.074219 61.304687-160h32l26.695313 20v61.871093l-13.742188 24.058594-31.738281 15.863282-18.519531 27.808593v46.703125l49.601562 33.054688 9.945312 23.199218-6.304687 22.042969-39.28125 21.398438h-27.558594c-27.65625-39.957031-42.449219-87.40625-42.402343-136zm240 240c-34.511719.019531-68.617188-7.449219-99.957032-21.894531l30.175782-18.105469h55.199218l61.527344-23.070313 58.015625 38.679688c-32.679687 16-68.574219 24.339844-104.960937 24.390625zm120.929687-33-71.90625-47.925781-66.46875 24.925781h-56.800781l-41.90625 25.144531.746094 1.230469c-26.894532-14.820313-50.71875-34.632813-70.191407-58.375h19.613281l48.738282-26.574219 9.695312-33.960938-14.054687-32.800781-46.394531-30.945312v-33.316407l13.480468-20.21875 32.265625-16.136718 18.253907-31.917969v-74.128906l-37.335938-28h-21.597656c81.523437-75.578125 204.277344-85.28125 296.664062-23.449219l-27.800781 15.449219h-72l-40.847656 22.6875-20.183594 80.753906-20.898437 16.71875v37.726563l26.402343 52.84375 53.597657 15.308593v93.960938h165.746093c-20.09375 29.011719-46.316406 53.25-76.816406 71zm119.070313-87h-192v-48h192zm0-64h-192v-48h192zm0-64h-192v-48h192zm0-64h-192v-48h192zm0 0"/><path d="m416.085938 152.042969h64v16h-64zm0 0"/></svg>